<?xml version="1.0" standalone="no"?>
<!DOCTYPE svg PUBLIC "-//W3C//DTD SVG 20010904//EN"
 "http://www.w3.org/TR/2001/REC-SVG-20010904/DTD/svg10.dtd">
<svg version="1.0" xmlns="http://www.w3.org/2000/svg"
 width="501.000000pt" height="501.000000pt" viewBox="0 0 501.000000 501.000000"
 preserveAspectRatio="xMidYMid meet">
<metadata>
Created by potrace 1.11, written by Peter Selinger 2001-2013
</metadata>
<g transform="translate(0.000000,501.000000) scale(0.100000,-0.100000)"
fill="#000000" stroke="none">
<path d="M1873 4785 c-94 -41 -299 -220 -389 -342 -44 -59 -61 -74 -101 -88
-372 -132 -573 -411 -573 -797 0 -106 17 -157 85 -254 55 -78 168 -215 214
-258 35 -33 38 -55 15 -91 -10 -15 -12 -30 -7 -39 9 -17 119 -96 133 -96 5 0
15 -8 22 -18 7 -11 63 -51 124 -90 106 -69 113 -72 156 -66 52 7 79 -4 166
-70 95 -71 213 -150 286 -190 86 -48 164 -58 259 -32 34 9 82 18 107 19 l45 2
12 -90 c15 -107 8 -171 -39 -370 -30 -126 -36 -140 -56 -143 -15 -2 -67 25
-156 82 -123 80 -136 86 -184 86 -87 0 -215 -65 -327 -165 -65 -58 -63 -49
-22 -115 16 -27 2 -35 -70 -44 -65 -8 -105 -27 -198 -96 -38 -28 -77 -55 -85
-60 -9 -5 -52 2 -105 16 -49 13 -103 23 -120 23 -17 -1 5 -9 50 -19 96 -22
135 -36 135 -48 0 -5 -12 -21 -26 -36 -31 -31 -90 -35 -147 -11 -63 26 -90 20
-141 -32 -26 -27 -88 -103 -138 -170 -86 -117 -92 -123 -127 -124 l-36 -1 28
-12 c40 -18 84 -8 107 23 11 14 54 71 94 126 105 142 110 147 144 133 15 -6
45 -14 67 -17 44 -7 42 0 24 -101 -12 -63 -6 -127 15 -169 9 -16 38 -48 66
-71 51 -42 52 -43 92 -31 22 7 51 23 65 37 28 28 33 29 33 9 0 -27 54 -110 96
-148 29 -26 57 -40 95 -48 53 -11 76 -23 189 -99 92 -62 120 -73 188 -74 62
-1 65 0 96 37 41 49 83 59 196 47 58 -6 119 -21 191 -49 204 -77 427 -123 599
-125 94 -1 109 1 143 23 42 26 53 26 227 1 208 -29 318 -39 456 -41 l151 -2
44 31 c147 103 383 353 507 537 26 39 50 72 53 75 24 22 182 331 224 440 61
158 111 340 140 510 15 89 34 315 34 405 0 90 -19 316 -34 405 -35 208 -118
484 -183 610 l-27 53 -140 62 c-277 122 -630 255 -910 341 -147 45 -218 74
-390 159 -223 110 -350 158 -454 169 -83 9 -109 23 -167 91 -26 31 -76 78
-110 106 -64 51 -64 51 -64 102 0 62 -25 108 -72 137 -53 32 -92 35 -140 10
-47 -24 -89 -28 -140 -11 -103 34 -209 61 -234 61 -16 -1 -43 -7 -61 -15z
m552 -83 c56 -39 64 -69 39 -140 -19 -53 -23 -57 -55 -60 -32 -3 -36 -8 -73
-85 -77 -161 -116 -258 -135 -335 -35 -140 -36 -134 4 -183 167 -207 275 -374
275 -424 0 -30 -47 -378 -53 -400 -2 -5 -9 0 -15 12 -7 13 -15 92 -18 190 -4
109 -11 182 -20 207 -48 127 -271 400 -431 528 -124 99 -303 192 -450 237 -40
12 -75 25 -78 30 -11 19 47 51 91 51 50 0 167 -41 284 -100 96 -48 111 -48
217 5 82 41 187 144 227 222 29 58 32 78 21 139 -6 37 -4 45 22 74 24 26 70
53 103 58 3 1 23 -11 45 -26z m-999 -708 c473 -375 672 -563 798 -752 74 -112
99 -164 127 -275 26 -97 21 -133 -27 -230 -64 -127 -211 -337 -235 -337 -6 0
-54 31 -107 69 -53 37 -152 105 -219 150 -67 46 -125 92 -128 102 -5 13 13 54
53 126 33 58 58 111 55 117 -5 14 -356 246 -371 246 -6 0 -39 -36 -74 -80 -35
-44 -70 -80 -79 -80 -20 0 -166 158 -253 274 -49 64 -71 104 -88 159 -56 183
4 401 151 548 55 55 159 129 182 129 4 0 101 -75 215 -166z m1618 96 c133 -23
240 -59 244 -83 2 -9 -21 -51 -51 -94 -67 -96 -167 -291 -167 -325 0 -5 20 14
44 44 65 79 233 218 265 218 26 0 19 -24 -19 -68 -107 -121 -212 -314 -316
-579 -63 -160 -174 -504 -174 -537 0 -16 -26 -33 -36 -23 -3 2 2 110 11 238
10 141 18 423 21 709 3 261 7 485 10 498 6 28 18 28 168 2z m528 -296 c3 -3
-6 -28 -19 -57 -59 -121 -114 -287 -96 -287 4 0 37 9 73 20 41 13 75 18 95 14
51 -11 298 -95 338 -116 33 -16 37 -21 26 -34 -8 -10 -24 -14 -43 -11 -33 5
-366 -10 -404 -19 -45 -10 -144 -192 -222 -411 -19 -53 -37 -90 -43 -86 -13 8
-3 144 17 238 8 38 13 71 11 73 -7 7 -138 -224 -207 -365 -38 -79 -74 -141
-79 -137 -23 14 24 221 92 404 111 303 275 606 392 728 51 52 59 57 69 46z
m-2036 -739 c96 -64 144 -101 144 -113 0 -24 -115 -233 -133 -243 -22 -13 -99
32 -120 68 -21 36 -38 138 -38 228 l-1 60 -78 -84 c-57 -60 -83 -82 -95 -77
-10 3 -15 14 -13 26 3 22 167 230 182 230 4 0 73 -43 152 -95z m2302 -179 c-2
-7 -59 -55 -128 -107 -144 -108 -337 -295 -370 -358 -14 -29 -20 -55 -17 -75
7 -45 50 -145 65 -151 7 -2 34 6 61 19 158 80 441 72 816 -23 203 -52 225 -60
225 -76 0 -11 -56 -13 -302 -12 -323 1 -374 -4 -499 -53 -97 -38 -85 -42 117
-34 183 7 264 2 264 -15 0 -4 -51 -23 -112 -41 -62 -18 -147 -46 -188 -64
l-75 -31 175 -6 c196 -8 323 -29 485 -84 111 -37 261 -103 252 -111 -2 -3 -42
2 -88 11 -250 48 -392 65 -531 65 -84 -1 -221 -19 -233 -32 -3 -3 17 -8 45
-11 69 -8 209 -58 276 -98 89 -54 209 -178 190 -196 -7 -7 -14 -4 -191 90
-123 66 -155 80 -155 68 0 -4 25 -44 55 -89 30 -45 55 -86 55 -92 0 -13 -27
-18 -130 -24 -47 -3 -114 -14 -150 -24 l-65 -18 1 -36 c1 -21 13 -62 29 -93
25 -52 28 -85 6 -85 -26 0 -181 142 -252 232 -39 50 -39 50 -39 20 0 -46 37
-156 92 -275 29 -63 47 -112 42 -117 -12 -12 -92 88 -144 178 -48 86 -76 158
-105 271 l-21 85 -26 -35 c-15 -19 -45 -71 -67 -117 -23 -45 -45 -82 -50 -82
-27 0 -31 225 -6 322 29 109 77 133 157 76 47 -33 190 -39 236 -9 11 7 9 16
-11 48 -125 198 -319 724 -288 782 13 23 192 178 279 241 98 71 283 180 304
180 11 0 18 -6 16 -14z m-1780 -972 c32 -9 26 -25 -21 -59 -54 -39 -59 -71
-19 -116 l29 -33 294 28 c461 43 688 46 736 11 20 -15 23 -13 -55 -34 -158
-43 -219 -248 -178 -596 8 -60 12 -113 9 -118 -6 -11 -40 10 -88 54 -47 43
-89 123 -100 187 l-7 43 -33 -38 c-18 -21 -57 -52 -86 -68 -56 -31 -49 -30
-282 -35 -4 0 -4 -32 0 -72 7 -84 1 -84 -50 2 -56 93 -105 202 -144 319 -19
58 -37 108 -38 109 -2 2 -11 -10 -19 -27 -11 -21 -16 -59 -16 -129 0 -106 -3
-114 -53 -126 -39 -9 -49 -41 -56 -191 -6 -127 -6 -129 -23 -105 -35 52 -58
177 -64 345 -7 214 -4 205 -59 205 -56 0 -78 -20 -100 -92 -29 -96 -30 -185
-4 -312 23 -115 21 -149 -8 -111 -49 64 -85 192 -97 345 -4 41 -9 99 -12 127
l-6 53 -30 -22 c-46 -32 -116 -133 -164 -234 -44 -94 -73 -124 -119 -124 -39
0 -75 41 -75 87 0 62 85 177 205 279 125 107 224 146 368 147 115 0 121 8 52
72 -30 27 -44 47 -40 57 8 20 119 110 165 133 73 38 140 52 188 39z"/>
<path d="M1575 3708 c59 -57 116 -109 126 -116 27 -19 239 -250 303 -330 77
-98 175 -238 208 -301 34 -64 36 -113 6 -168 -73 -134 -109 -206 -104 -210 8
-9 114 142 145 207 43 90 41 130 -10 233 -63 126 -150 239 -294 383 -138 139
-450 404 -474 404 -9 0 34 -46 94 -102z"/>
<path d="M912 1480 c-39 -26 -88 -74 -135 -133 -81 -100 -177 -239 -177 -256
0 -20 15 -11 28 17 18 42 130 192 188 253 94 99 142 139 169 139 15 0 24 4 20
10 -11 18 -31 11 -93 -30z"/>
</g>
</svg>
